<?xml version="1.0" encoding="UTF-8"?>
<svg width="107px" height="24px" viewBox="0 0 107 24" version="1.1" xmlns="http://www.w3.org/2000/svg" xmlns:xlink="http://www.w3.org/1999/xlink">
    <title>billease@2x</title>
    <g id="Web" stroke="none" stroke-width="1" fill="none" fill-rule="evenodd">
        <g id="BillEase_-Desktop/-Home-Screen" transform="translate(-30.000000, -30.000000)" fill-rule="nonzero">
            <g id="billease" transform="translate(30.000000, 30.000000)">
                <path d="M7.06231795,23.9186051 C8.08391111,23.9186051 9.08884786,23.7853538 10.0771282,23.5188513 C11.0654085,23.2523487 11.9537504,22.7915214 12.7421538,22.1363692 C13.5305573,21.4812171 14.1635009,20.5651145 14.6409846,19.3880615 C15.1184684,18.2110085 15.3572103,16.7119316 15.3572103,14.8908308 C15.3572103,12.181388 14.7242667,10.0771282 13.4583795,8.57805128 C12.1924923,7.07897436 10.2936615,6.3294359 7.76188718,6.3294359 C7.29550769,6.3294359 6.73474188,6.39606154 6.07958974,6.52931282 C5.42443761,6.6625641 4.78038974,6.84023248 4.14744615,7.06231795 C3.93646496,7.13634644 3.73720494,7.21654397 3.5496661,7.30291054 L3.46374792,7.34547692 L3.46453333,-3.82527058e-13 L3.44485694e-13,-3.82527058e-13 L3.44485694e-13,20.1209436 C3.44485694e-13,20.8982427 0.194324786,21.5311863 0.582974359,22.0197744 C0.971623932,22.5083624 1.49907692,22.8914598 2.16533333,23.1690667 C2.83158974,23.4466735 3.58668034,23.6409983 4.43060513,23.752041 C5.27452991,23.8630838 6.15176752,23.9186051 7.06231795,23.9186051 Z M6.89575385,20.8871385 C6.36274872,20.8871385 5.83529573,20.8482735 5.31339487,20.7705436 C4.79149402,20.6928137 4.35287521,20.5318017 3.99753846,20.2875077 C3.64220171,20.0432137 3.46453333,19.6989812 3.46453333,19.2548103 L3.46453333,19.2548103 L3.46453333,10.2603487 C4.04195556,9.92722051 4.66934701,9.6829265 5.34670769,9.52746667 C6.02406838,9.37200684 6.65145983,9.29427692 7.22888205,9.29427692 C8.27268376,9.29427692 9.12771282,9.51636239 9.79396923,9.96053333 C10.4602256,10.4047043 10.9599179,11.0487521 11.2930462,11.8926769 C11.6261744,12.7366017 11.7927385,13.7804034 11.7927385,15.0240821 C11.7927385,16.1123009 11.6594872,17.0950291 11.3929846,17.9722667 C11.1264821,18.8495043 10.637894,19.5546256 9.92722051,20.0876308 C9.21654701,20.6206359 8.20605812,20.8871385 6.89575385,20.8871385 Z M22.3129085,4.03085128 L22.3129085,0.866133333 L18.5818726,0.866133333 L18.5818726,4.03085128 L22.3129085,4.03085128 Z M22.21297,23.4189128 L22.1796572,6.79581538 L18.681811,6.79581538 L18.681811,23.4189128 L22.21297,23.4189128 Z M29.8682293,23.4189128 L29.8682293,0.366441026 L26.403696,0.366441026 L26.403696,23.4189128 L29.8682293,23.4189128 Z M37.4435371,23.4189128 L37.4435371,0.366441026 L33.9790037,0.366441026 L33.9790037,23.4189128 L37.4435371,23.4189128 Z" id="bill" fill="#203AA9"></path>
                <path d="M48.7498807,23.9186051 C49.9713508,23.9186051 51.0706739,23.8131145 52.0478499,23.6021333 C53.025026,23.3911521 53.9022636,23.1190974 54.6795627,22.7859692 L54.6795627,22.7859692 L54.6795627,19.5546256 C54.2798089,19.7545026 53.8023251,19.9599316 53.2471115,20.1709128 C52.6918978,20.381894 52.0867149,20.5540103 51.4315627,20.6872615 C50.7764106,20.8205128 50.0712892,20.8871385 49.3161986,20.8871385 C47.6283491,20.8871385 46.3513576,20.4041026 45.4852243,19.4380308 C44.7345754,18.6007685 44.3092077,17.4257143 44.2091212,15.9128681 L44.2065171,15.8569026 L55.9454499,15.8569026 C55.9656395,14.120598 55.7701676,12.5816007 55.3590342,11.2399108 L55.2292243,10.8433231 C54.729532,9.41087179 53.9244721,8.29489231 52.8140448,7.49538462 C51.7036174,6.69587692 50.2489576,6.29612308 48.4500653,6.29612308 C46.0071251,6.29612308 44.1027422,7.04566154 42.7369166,8.54473846 C41.3710909,10.0438154 40.6881781,12.2480137 40.6881781,15.1573333 C40.6881781,17.0450598 41.0157542,18.6440752 41.6709063,19.9543795 C42.3260585,21.2646838 43.2588174,22.2529641 44.4691833,22.9192205 C45.6795491,23.5854769 47.1064482,23.9186051 48.7498807,23.9186051 Z M52.3860043,13.2585026 L44.2909889,13.2585026 L44.3297374,12.9754812 C44.39361,12.5481961 44.4787733,12.1642269 44.5852275,11.8235735 L44.6690602,11.5762051 C44.9910841,10.6989675 45.4630157,10.0771282 46.084855,9.71068718 C46.7066944,9.34424615 47.461785,9.16102564 48.3501268,9.16102564 C49.7270568,9.16102564 50.7375456,9.55522735 51.3815935,10.3436308 C51.8876311,10.9630906 52.2154338,11.8670408 52.3650016,13.0554813 L52.3860043,13.2585026 Z M65.2163993,23.9186051 C66.6821634,23.9186051 67.9924677,23.8131145 69.1473121,23.6021333 C70.3021566,23.3911521 71.2182592,22.9913983 71.8956198,22.4028718 C72.5729805,21.8143453 72.9116609,20.9759726 72.9116609,19.8877538 L72.9116609,19.8877538 L72.9116609,11.8926769 C72.9116609,11.0487521 72.7895139,10.3158701 72.5452198,9.69403077 C72.3009258,9.07219145 71.9622455,8.54473846 71.5291788,8.11167179 C71.0961121,7.67860513 70.601972,7.33437265 70.0467583,7.07897436 C69.4915446,6.82357607 68.897466,6.63480342 68.2645224,6.51265641 C67.6315788,6.3905094 67.0041874,6.3294359 66.382348,6.3294359 C65.1164609,6.3294359 63.8894386,6.45713504 62.7012814,6.71253333 C61.5131241,6.96793162 60.6081258,7.30661197 59.9862865,7.72857436 L59.9862865,7.72857436 L59.9862865,10.9932308 C60.6303344,10.4602256 61.4520506,10.0438154 62.4514352,9.744 C63.4508198,9.44418462 64.4168916,9.29427692 65.3496506,9.29427692 C66.6599549,9.29427692 67.6704438,9.56633162 68.3811173,10.110441 C69.0917908,10.6545504 69.4471275,11.5151316 69.4471275,12.6921846 L69.4471275,12.6921846 L69.4469274,14.2685949 L69.2106065,14.1346297 C69.1151098,14.0835501 69.0162817,14.0335809 68.9141224,13.9847221 L68.5976506,13.8414769 C68.0535412,13.6082872 67.4428062,13.4250667 66.7654455,13.2918154 C66.0880848,13.1585641 65.3274421,13.0919385 64.4835173,13.0919385 C63.2176301,13.0919385 62.1294113,13.2918154 61.2188609,13.6915692 C60.3083104,14.0913231 59.6087412,14.6909538 59.1201532,15.4904615 C58.6315651,16.2899692 58.3872711,17.3115624 58.3872711,18.555241 C58.3872711,19.5990427 58.5815959,20.4707282 58.9702455,21.1702974 C59.3588951,21.8698667 59.8807959,22.4195282 60.535948,22.8192821 C61.1911002,23.2190359 61.9184301,23.5021949 62.7179378,23.668759 C63.5174455,23.8353231 64.350266,23.9186051 65.2163993,23.9186051 Z M65.6161532,21.1869538 C64.9943139,21.1869538 64.4002352,21.0925675 63.8339173,20.9037949 C63.2675993,20.7150222 62.7956677,20.4152068 62.4181224,20.0043487 C62.0405771,19.5934906 61.8518045,19.0549333 61.8518045,18.3886769 C61.8518045,17.500335 62.1793805,16.8340786 62.8345327,16.3899077 C63.4896848,15.9457368 64.4502045,15.7236513 65.7160916,15.7236513 C66.6710592,15.7236513 67.559401,15.8402462 68.3811173,16.0734359 C68.7332814,16.1733744 69.0548521,16.2824908 69.3458294,16.4007853 L69.4469274,16.4458256 L69.4471275,19.6878769 C69.4471275,20.2782541 69.1858687,20.6726872 68.6633509,20.8711761 L68.5143686,20.9204513 C67.8925292,21.0981197 66.9264574,21.1869538 65.6161532,21.1869538 Z M81.856143,23.9186051 C82.9443618,23.9186051 83.9992678,23.7409368 85.020861,23.3856 C86.0424541,23.0302632 86.8697225,22.4639453 87.5026661,21.6866462 C88.1356097,20.909347 88.4631857,19.8988581 88.4853943,18.6551795 C88.4853943,17.7224205 88.3243823,16.9673299 88.0023584,16.3899077 C87.6803345,15.8124855 87.2639242,15.346106 86.7531276,14.9907692 C86.242331,14.6354325 85.6871174,14.3633778 85.0874866,14.1746051 C84.4878558,13.9858325 83.9104336,13.802612 83.3552199,13.6249436 C82.7555892,13.4472752 82.1948234,13.2696068 81.6729225,13.0919385 C81.1510216,12.9142701 80.7290592,12.6699761 80.4070353,12.3590564 C80.0850114,12.0481368 79.9239994,11.6261744 79.9239994,11.0931692 C79.9239994,10.4713299 80.2127105,9.99939829 80.7901328,9.67737436 C81.367555,9.35535043 82.0893328,9.19433846 82.9554661,9.19433846 C83.8882251,9.19433846 84.7099413,9.34979829 85.4206148,9.66071795 C86.1312883,9.97163761 86.8863789,10.3380786 87.6858866,10.760041 L87.6858866,10.760041 L87.6525738,7.76188718 C86.9419003,7.38434188 86.2145704,7.06231795 85.470584,6.79581538 C84.7265977,6.52931282 83.7660781,6.38495726 82.5890251,6.36274872 C81.8783516,6.36274872 81.1510216,6.45713504 80.4070353,6.64590769 C79.663049,6.83468034 78.9856883,7.13449573 78.3749533,7.54535385 C77.7642182,7.95621197 77.2700781,8.48921709 76.8925328,9.14436923 C76.5149875,9.79952137 76.3262148,10.5934769 76.3262148,11.5262359 C76.3262148,12.3701607 76.4761225,13.0808342 76.7759379,13.6582564 C77.0757533,14.2356786 77.4755071,14.7076103 77.9751994,15.0740513 C78.4748917,15.4404923 79.0245533,15.7292034 79.624184,15.9401846 C80.2238148,16.1511658 80.8234456,16.3343863 81.4230763,16.4898462 C82.0004986,16.6897231 82.5557122,16.8896 83.0887174,17.0894769 C83.6217225,17.2893538 84.0603413,17.5336479 84.4045738,17.822359 C84.7488063,18.1110701 84.9209225,18.5108239 84.9209225,19.0216205 C84.9209225,19.6212513 84.6488678,20.1209436 84.1047584,20.5206974 C83.560649,20.9204513 82.8111105,21.1203282 81.856143,21.1203282 C81.1010524,21.1203282 80.4181396,21.0425983 79.8074045,20.8871385 C79.1966695,20.7316786 78.6136951,20.5151453 78.0584815,20.2375385 C77.5032678,19.9599316 76.9369498,19.6434598 76.3595276,19.2881231 L76.3595276,19.2881231 L76.3595276,22.5860923 C77.1590353,22.9636376 77.9751994,23.2801094 78.8080199,23.5355077 C79.6408404,23.790906 80.6568815,23.9186051 81.856143,23.9186051 Z M98.9489362,23.9186051 C100.170406,23.9186051 101.269729,23.8131145 102.246905,23.6021333 C103.224081,23.3911521 104.101319,23.1190974 104.878618,22.7859692 L104.878618,22.7859692 L104.878618,19.5546256 C104.478864,19.7545026 104.001381,19.9599316 103.446167,20.1709128 C102.890953,20.381894 102.28577,20.5540103 101.630618,20.6872615 C100.975466,20.8205128 100.270345,20.8871385 99.5152541,20.8871385 C97.8274045,20.8871385 96.5504131,20.4041026 95.6842798,19.4380308 C94.9336309,18.6007685 94.5082632,17.4257143 94.4081766,15.9128681 L94.4053684,15.8569026 L106.144505,15.8569026 C106.164695,14.120598 105.969223,12.5816007 105.55809,11.2399108 L105.42828,10.8433231 C104.928587,9.41087179 104.123528,8.29489231 103.0131,7.49538462 C101.902673,6.69587692 100.448013,6.29612308 98.6491208,6.29612308 C96.2061806,6.29612308 94.3017977,7.04566154 92.9359721,8.54473846 C91.5701464,10.0438154 90.8872336,12.2480137 90.8872336,15.1573333 C90.8872336,17.0450598 91.2148097,18.6440752 91.8699618,19.9543795 C92.5251139,21.2646838 93.4578729,22.2529641 94.6682387,22.9192205 C95.8786045,23.5854769 97.3055037,23.9186051 98.9489362,23.9186051 Z M102.586045,13.2585026 L94.4898402,13.2585026 L94.5287929,12.9754812 C94.5926654,12.5481961 94.6778288,12.1642269 94.784283,11.8235735 L94.8681157,11.5762051 C95.1901396,10.6989675 95.6620712,10.0771282 96.2839105,9.71068718 C96.9057498,9.34424615 97.6608404,9.16102564 98.5491823,9.16102564 C99.9261122,9.16102564 100.936601,9.55522735 101.580649,10.3436308 C102.086687,10.9630906 102.414489,11.8670408 102.564057,13.0554813 L102.586045,13.2585026 Z" id="ease" fill="#F84040"></path>
            </g>
        </g>
    </g>
</svg>